# xmcd
#
# Track frame offsets:
#	150
#	17605
#	33142
#	49392
#	66712
#	83038
#	99931
#	119063
#	140262
#	159588
#
# Disc length: 2350 seconds
#
# Revision: 1
# Processed by: cddbd v1.5.2PL0 Copyright (c) Steve Scherf et al.
# Submitted via: audiograbber 1.82.01
#
DISCID=83092c0a
DTITLE=LeAnn Rimes - I need you
DYEAR=1900
DGENRE=
TTITLE0=I need you
TTITLE1=But i do love you
TTITLE2=You are
TTITLE3=Soon
TTITLE4=Can't fight the moonlight
TTITLE5=Love must be telling me something
TTITLE6=Written in the stars
TTITLE7=One of these days
TTITLE8=I believe in you
TTITLE9=Together, forever, always
EXTD=
EXTT0=
EXTT1=
EXTT2=
EXTT3=
EXTT4=
EXTT5=
EXTT6=
EXTT7=
EXTT8=
EXTT9=
PLAYORDER=
